<svg width="27" height="29" viewBox="0 0 27 29" fill="none" xmlns="http://www.w3.org/2000/svg">
<path d="M24.0299 18.1126C26.8603 16.471 26.8603 12.3953 24.0299 10.782L15.0293 5.60238L14.3217 5.20613L8.17979 8.7441C7.95336 8.8856 7.67032 8.9139 7.41559 8.8856C7.18916 8.8573 6.96273 8.7441 6.7929 8.5743C6.22683 8.0082 6.39665 7.1308 7.01933 6.76284L12.0291 3.87585L9.93462 2.63049L6.34004 0.564309C3.50967 -1.049 0 0.988869 0 4.2438V20.8581L11.2932 14.3482C11.5196 14.2067 11.7744 14.1784 12.0574 14.2067C12.2838 14.235 12.5103 14.3482 12.6801 14.5181C13.2462 15.0841 13.0763 15.9899 12.4537 16.3578L0 23.547V24.6225C0 27.8774 3.53797 29.9153 6.34004 28.302L24.0299 18.1126Z" fill="url(#paint0_linear_2588_2381)"/>
<defs>
<linearGradient id="paint0_linear_2588_2381" x1="1.94888" y1="1.41974" x2="15.4454" y2="23.3862" gradientUnits="userSpaceOnUse">
<stop stop-color="#1DCAD3"/>
<stop offset="1" stop-color="#00ABC8"/>
</linearGradient>
</defs>
</svg>
